<svg class="sprite-icons" xmlns="http://www.w3.org/2000/svg" role="img" aria-hidden="true" focusable="false"><defs><svg xmlns="http://www.w3.org/2000/svg" width="565" height="20" viewBox="0 0 565 20"><g transform="translate(0, 0)"><rect x="0" y="0" width="58" height="20" fill="#6c757d"/><rect x="58" y="0" width="31" height="20" fill="#007acc"/><text x="29" y="14" text-anchor="middle" font-family="sans-serif" font-size="11" fill="#fff">License</text><text x="73" y="14" text-anchor="middle" font-family="sans-serif" font-size="11" fill="#fff">MIT</text></g><g transform="translate(94, 0)"><rect x="0" y="0" width="25" height="20" fill="#6c757d"/><rect x="25" y="0" width="51" height="20" fill="#00ADD8"/><text x="12" y="14" text-anchor="middle" font-family="sans-serif" font-size="11" fill="#fff">Go</text><text x="50" y="14" text-anchor="middle" font-family="sans-serif" font-size="11" fill="#fff">1.25.2</text></g><g transform="translate(175, 0)"><rect x="0" y="0" width="45" height="20" fill="#6c757d"/><rect x="45" y="0" width="51" height="20" fill="#e05d44"/><text x="22" y="14" text-anchor="middle" font-family="sans-serif" font-size="11" fill="#fff">Tests</text><text x="70" y="14" text-anchor="middle" font-family="sans-serif" font-size="11" fill="#fff">Failed</text></g><g transform="translate(276, 0)"><rect x="0" y="0" width="64" height="20" fill="#6c757d"/><rect x="64" y="0" width="31" height="20" fill="#4c1"/><text x="32" y="14" text-anchor="middle" font-family="sans-serif" font-size="11" fill="#fff">Coverage</text><text x="79" y="14" text-anchor="middle" font-family="sans-serif" font-size="11" fill="#fff">88%</text></g><g transform="translate(376, 0)"><rect x="0" y="0" width="38" height="20" fill="#6c757d"/><rect x="38" y="0" width="64" height="20" fill="#e05d44"/><text x="19" y="14" text-anchor="middle" font-family="sans-serif" font-size="11" fill="#fff">Race</text><text x="70" y="14" text-anchor="middle" font-family="sans-serif" font-size="11" fill="#fff">Detected</text></g><g transform="translate(483, 0)"><rect x="0" y="0" width="31" height="20" fill="#6c757d"/><rect x="31" y="0" width="51" height="20" fill="#e05d44"/><text x="15" y="14" text-anchor="middle" font-family="sans-serif" font-size="11" fill="#fff">Vet</text><text x="56" y="14" text-anchor="middle" font-family="sans-serif" font-size="11" fill="#fff">Issues</text></g></svg><svg xmlns="http://www.w3.org/2000/svg" width="109" height="20"><linearGradient id="a" x2="0" y2="100%"><stop offset="0" stop-color="#bbb" stop-opacity=".1"/><stop offset="1" stop-opacity=".1"/></linearGradient><rect rx="3" width="109" height="20" fill="#555"/><rect rx="3" x="44" width="65" height="20" fill="#5272B4"/><path fill="#5272B4" d="M44 0h4v20h-4z"/><rect rx="3" width="109" height="20" fill="url(#a)"/><g fill="#fff" text-anchor="middle" font-family="DejaVu Sans,Verdana,Geneva,sans-serif" font-size="11"><text x="23" y="15" fill="#010101" fill-opacity=".3">godoc</text><text x="23" y="14">godoc</text><text x="75.5" y="15" fill="#010101" fill-opacity=".3">reference</text><text x="75.5" y="14">reference</text></g></svg><svg width="210mm" height="102.882mm" viewBox="0 0 209.99999 102.882" id="svg1" xmlns="http://www.w3.org/2000/svg"><path id="path16" style="-inkscape-font-specification:Arial;stroke-width:.2;stroke-dasharray:none;stroke:#000;stroke-opacity:1;fill:none" d="m102.20723 90.774821c.43408.0.79582.204985 1.0852.61495.29284.409964.43925 1.238516.43925 2.485636.0 1.240229-.14641 2.067059-.43925 2.480469-.28938.41341-.64768.620117-1.07487.620117-.42719.0-.7872-.204985-1.08003-.61495-.28939-.413409-.43409-1.241962-.43409-2.485636.0-1.243675.1602-2.096343.48059-2.557983.25494-.361734.59601-.542603 1.0232-.542603l.0103-.769979c-.55121.0-1.00941.14814-1.37459.444417-.36173.296277-.63562.718305-.82166 1.266073-.182581.544323-.27388 1.264354-.27388 2.160075.0 1.422818.249769 2.449465.74931 3.079915.41685.523652.99046.785482 1.72082.785482.55466.0 1.01286-.14814 1.3746-.444417.36518-.299722.63906-.72175.82165-1.266073.18259-.547768.27389-1.266077.27389-2.154907.0-.751028-.0568-1.347034-.17054-1.788005-.11368-.444415-.27044-.819934-.47025-1.126546-.19982-.310057-.45303-.546048-.75964-.707967-.30661-.165364-.66319-.248047-1.06971-.248047z"/><path id="path69" style="color:#000;fill:none;fill-rule:evenodd;stroke:#000;stroke-width:.179103;stroke-dasharray:none;stroke-opacity:1" d="m173.75612 4.7012142c-7.14797.1239786-14.61105 2.725362-18.5626 8.4479048l.73988.508979c3.7224-5.3903427 10.90219-7.9444769 17.84202-8.0649016 6.40978-.1111847 12.54948 1.884826 15.48598 5.3836066l-1.18767.757309 3.42456 1.778786-.0139-.363779-.15197-3.4910981-1.30646.8325481C186.85459 6.5872248 180.4096 4.5857649 173.75612 4.7012142z"/><rect id="rect1" width="50.069759" height="32.30307" x="7.3241954" y="21.503059" style="fill:none;fill-opacity:1;stroke:#000;stroke-width:.179103;stroke-linecap:round;stroke-dasharray:none;stroke-opacity:1"/><path id="path39-8" style="font-size:3.09841px;line-height:1.25;font-family:Arial;-inkscape-font-specification:Arial;fill:none;fill-opacity:1;stroke:#000;stroke-width:.179103;stroke-dasharray:none;stroke-opacity:1" d="m104.61109 73.573482c-.75105.0-1.36197.253847-1.83311.758832-.47114.505323-.70671 1.215416-.70671 2.130278.0.884401.23185 1.570801.69622 2.062248.46775.488062 1.09898.73277 1.89437.73277.63157.0 1.15043-.152647 1.55658-.45997.40616-.306985.68403-.739539.83431-1.29597l-.95141-.117108c-.14013.389231-.32967.672524-.56862.849878-.23895.177692-.52766.266031-.86579.266031-.45387.0-.83295-.158401-1.13689-.475878-.3036-.317477-.47283-.775416-.50701-1.372801h4.05578c.003-.109323.005-.192246.005-.246738.0-.897939-.22982-1.593478-.6908-2.08831-.46065-.495169-1.05499-.743262-1.78234-.743262l.0105.758832c.46775.0.84852.176677 1.14231.531723.19123.2288.30698.573016.34794 1.030278h-3.03634c.0308-.474524.1892-.853601.47587-1.136893.29007-.283293.64714-.425108 1.07022-.425108z"/><path style="fill:none;fill-opacity:1;stroke:#000;stroke-width:.179103;stroke-linecap:butt;stroke-linejoin:miter;stroke-dasharray:none;stroke-opacity:1" d="m88.561907 38.635765S87.76043 9.298236 102.34881 15.710801c14.58872 6.412564 4.96997 15.390195-1.122 9.779176-6.091975-5.610986-9.458654 2.404737-3.20625 5.130065 6.25207 2.725362 17.63454-3.526907 20.68035 1.603158 3.04616 5.130133-1.76338 13.145923-1.76338 13.145923L96.257174 56.911686z" id="path1"/><path style="font-size:3.09841px;line-height:1.25;font-family:Arial;-inkscape-font-specification:Arial;fill:none;fill-opacity:1;stroke:#000;stroke-width:.179103;stroke-dasharray:none;stroke-opacity:1" d="m123.36289 79.134409v-5.438065h.82415v.763231c.17092-.266369.39769-.4796.68099-.640031.28363-.164154.60618-.246062.968-.246062.40277.0.73209.0836.9883.251139.25927.1672.44204.401077.54764.701293.43018-.634954.99-.952432 1.67978-.952432.53917.0.95413.150277 1.24419.450831.29006.296831.43526.756124.43526 1.377201v3.732895h-.91656v-3.425571c0-.368585-.0308-.633262-.0921-.793693-.0582-.163816-.1655-.295139-.32255-.394308-.15705-.09883-.34151-.148585-.55305-.148585-.38246.0-.69994.128277-.95243.384154-.25283.252831-.37908.658985-.37908 1.218801v3.159202h-.92163v-3.533202c0-.409539-.0751-.716862-.22541-.921632-.15028-.204769-.396-.306984-.73717-.306984-.2596.0-.50025.06803-.72228.204769-.21831.1364-.37705.336093-.47622.599077-.0988.262647-.14824.641724-.14824 1.136555v2.821756z" id="path32"/><path style="font-size:3.09841px;line-height:1.25;font-family:Arial;-inkscape-font-specification:Arial;fill:none;fill-opacity:1;stroke:#000;stroke-width:.179103;stroke-dasharray:none;stroke-opacity:1" d="m119.86015 79.134409v-5.438065h.82957v.824493c.21187-.385508.40615-.640031.58384-.762893.18074-.122862.37874-.184462.594-.184462.31071.0.62649.09917.94736.29717l-.31748.854954c-.22542-.133015-.45083-.199692-.67591-.199692-.20138.0-.38246.0616-.54289.184462-.16043.119477-.27483.286677-.3432.501938-.10222.327631-.15366.686062-.15366 1.075293v2.846802z" id="path31"/><path id="path29" style="font-size:3.09841px;line-height:1.25;font-family:Arial;-inkscape-font-specification:Arial;fill:none;fill-opacity:1;stroke:#000;stroke-width:.179103;stroke-dasharray:none;stroke-opacity:1" d="m114.53513 74.178652c-.55982.484677-.83973 1.22997-.83973 2.237232.0.918247.23388 1.620894.7013 2.109294.47113.488062 1.08747.73277 1.84901.73277.47453.0.91046-.112031 1.30985-.334062.40277-.222031.7084-.531046.91655-.930431.21154-.40277.31816-.954801.31816-1.65474.0-.863754-.23726-1.538986-.71179-2.027047-.47452-.491447-1.08544-.738186-1.83277-.738186v.762555c.45388.0.83296.174985 1.1369.522923.30698.344893.45996.852924.45996 1.525447.0.713478-.15095 1.245201-.45489 1.59314-.30394.348277-.68471.521231-1.14197.521231-.46098.0-.84378-.171261-1.14738-.515816-.30394-.348277-.45659-.870862-.45659-1.567078.0-.696554.15265-1.217108.45659-1.562001.3036-.344892.6864-.517846 1.14738-.517846v-.762555c-.67252.0-1.24317.202401-1.71058.60517"/><path style="font-size:3.09841px;line-height:1.25;font-family:Arial;-inkscape-font-specification:Arial;fill:none;fill-opacity:1;stroke:#000;stroke-width:.179103;stroke-dasharray:none;stroke-opacity:1" d="m111.34479 79.134409v-4.720864h-.81434v-.717201h.81434v-.578431c0-.3652.0325-.636647.0971-.814339.089-.238954.24437-.431539.46607-.578431.22541-.150277.5395-.225416.94227-.225416.25927.0.54628.0308.86003.09206l-.13809.804185c-.19123-.03418-.37197-.05145-.54289-.05145-.27991.0-.47791.05991-.594.179384-.11609.119477-.17397.342862-.17397.670832v.5016h1.06006V74.4132h-1.06006v4.721203z" id="path28"/><path style="font-size:3.09841px;line-height:1.25;font-family:Arial;-inkscape-font-specification:Arial;fill:none;fill-opacity:1;stroke:#000;stroke-width:.179103;stroke-dasharray:none;stroke-opacity:1" d="m100.02832 79.134409v-7.506743h.92163v7.506743z" id="path25"/><path style="font-size:3.09841px;line-height:1.25;font-family:Arial;-inkscape-font-specification:Arial;fill:none;fill-opacity:1;stroke:#000;stroke-width:.179103;stroke-dasharray:none;stroke-opacity:1" d="m85.48089 79.134409v-5.438065h.824154v.763231c.170923-.266369.397693-.4796.680985-.640031.283631-.164154.606185-.246062.968001-.246062.402769.0.732093.0836.988308.251139.259262.1672.442031.401077.547631.701293.430185-.634954.990001-.952432 1.679786-.952432.53917.0.954124.150277 1.244186.450831.290061.296831.435262.756124.435262 1.377201v3.732895h-.916555v-3.425571c0-.368585-.0308-.633262-.09206-.793693-.05822-.163816-.165507-.295139-.322554-.394308-.157046-.09883-.341508-.148585-.553046-.148585-.382462.0-.699939.128277-.952432.384154-.252831.252831-.379077.658985-.379077 1.218801v3.159202h-.921631v-3.533202c0-.409539-.07514-.716862-.225416-.921632-.150277-.204769-.396-.306984-.73717-.306984-.2596.0-.500246.06803-.722277.204769-.218308.1364-.377046.336093-.476216.599077-.09883.262647-.148246.641724-.148246 1.136555v2.821756z" id="path22"/><path style="font-size:3.09841px;line-height:1.25;font-family:Arial;-inkscape-font-specification:Arial;fill:none;fill-opacity:1;stroke:#000;stroke-width:.179103;stroke-dasharray:none;stroke-opacity:1" d="m83.155996 79.134409v-5.438065h.921631v5.438065z" id="path21"/><path style="font-size:3.09841px;line-height:1.25;font-family:Arial;-inkscape-font-specification:Arial;fill:none;fill-opacity:1;stroke:#000;stroke-width:.179103;stroke-dasharray:none;stroke-opacity:1" d="m83.155996 72.687728v-1.060062h.921631v1.060062z" id="path20"/><path style="font-size:3.09841px;line-height:1.25;font-family:Arial;-inkscape-font-specification:Arial;fill:none;fill-opacity:1;stroke:#000;stroke-width:.179103;stroke-dasharray:none;stroke-opacity:1" d="m77.538884 77.511485.911139-.143508c.05145.365201.192923.645109.425108.839724.235569.194616.5632.291754.983231.291754.423416.0.73717-.08529.942278-.255877.204769-.173969.306985-.377385.306985-.609231.0-.208493-.09037-.372308-.271108-.491785-.126585-.08191-.440677-.185816-.942278-.3124-.675908-.170585-1.145354-.317477-1.408339-.440339-.259262-.126246-.457262-.298523-.594001-.51717-.133015-.221692-.199692-.466062-.199692-.732093.0-.242338.05483-.466061.164154-.670831.112369-.208154.264339-.380769.455569-.517169.143508-.105939.337785-.194616.583847-.26637.249108-.07514.515477-.112708.79877-.112708.4268.0.800462.0616 1.121324.184462.324246.122862.5632.290062.716862.501939.153661.208154.2596.488062.317477.839724l-.901324.122861c-.04095-.279908-.160431-.498554-.358431-.6556-.194615-.157047-.471139-.23557-.82957-.23557-.423077.0-.725323.07006-.906062.210185-.181077.139785-.271446.3036-.271446.491447.0.119477.03757.227107.112708.322554.07514.09917.192584.181077.353354.245723.09206.03418.363508.112708.814.235569.651878.174308 1.106093.317477 1.361971.430185.2596.109323.462677.269754.609569.481293.146554.211877.22.474523.22.788616.0.307323-.09037.597385-.271446.870524-.177354.269754-.435262.4796-.773047.629877-.338123.146892-.720246.22-1.147047.22-.706708.0-1.245878-.146554-1.618185-.440339-.368585-.293446-.604155-.728708-.70637-1.305785z" id="text2"/><path id="path55" style="font-size:3.09841px;line-height:1.25;font-family:Arial;-inkscape-font-specification:Arial;fill:none;fill-opacity:1;stroke:#000;stroke-width:.179103;stroke-dasharray:none;stroke-opacity:1" d="m96.546221 74.29576c.396.0.7348.172954 1.018093.517846.286677.344893.430185.863755.430185 1.556586.0.727354-.1452 1.264493-.438985 1.61277-.290062.344893-.641385.517509-1.051263.517509-.402769.0-.744954-.167201-1.028246-.501939-.283293-.334401-.425109-.85157-.425109-1.551171.0-.699939.150954-1.233354.45117-1.598893.303939-.368585.651877-.552708 1.044155-.552708l.142154-.722278c-.409539.0-.713139.07006-.962247.209847-.249108.136738-.471816.344554-.669816.621077v-.706708h-.839724v7.520959h.92197v-2.646433c.157046.198001.355723.361816.598062.491447.245723.129969.521908.194277.828893.194277.420031.0.821108-.117785 1.199847-.353354.382462-.238954.671508-.579447.869508-1.02317.201385-.447108.302585-.949385.302585-1.505817.0-.518861-.09037-.995416-.271108-1.428985-.181077-.436954-.449477-.775416-.804523-1.01437-.355047-.238954-.76357-.35877-1.173447-.35877z"/><path style="font-size:3.09841px;line-height:1.25;font-family:Arial;-inkscape-font-specification:Arial;fill:none;fill-opacity:1;stroke:#000;stroke-width:.179103;stroke-dasharray:none;stroke-opacity:1" d="m56.420222 79.07044v-5.438065h.82957v.824493c.211539-.385847.406154-.640032.583847-.762893.180738-.122862.378738-.184462.593662-.184462.310708.0.626492.09917.947354.29717l-.317477.854954c-.225077-.133015-.450493-.199692-.675908-.199692-.201385.0-.382123.0616-.542554.184461-.160431.119477-.274831.286677-.343201.501939-.102554.327631-.153661.686062-.153661 1.075293v2.846802z" id="path47"/><path id="path45" style="font-size:3.09841px;line-height:1.25;font-family:Arial;-inkscape-font-specification:Arial;fill:none;fill-opacity:1;stroke:#000;stroke-width:.179103;stroke-dasharray:none;stroke-opacity:1" d="m50.285264 77.636716c0 .453877.160092.827539.481293 1.120986.320861.290061.780831.4356 1.378216.4356.361816.0.700277-.05889 1.01437-.17837.317477-.119477.6468-.3256.988308-.615662.02742.255878.088.480278.183447.671509h.961908c-.115754-.208154-.193262-.425447-.234215-.650524-.03757-.2288-.05618-.771693-.05618-1.62834v-1.229631c0-.409877-.01658-.69317-.04705-.850216-.05449-.252493-.150277-.460308-.287016-.624462-.1364-.1672-.349969-.305293-.640031-.414277-.290062-.109324-.667447-.164493-1.131478-.164493-.467754.0-.878308.066-1.233355.19597-.354708.126246-.627169.308338-.815016.547292-.187507.23557-.321877.546616-.403785.932462l.900647.122185c.09883-.385508.251816-.654246.456585-.804523.208154-.153662.528339-.229139.961909-.229139.464369.0.814.103231 1.04957.311385.173969.153661.262308.418677.262308.794031.0.03418-.002.115077-.0054.241323-.351662.122862-.89997.227785-1.644247.316801-.3652.04434-.637662.09037-.818401.138092-.246062.06803-.468431.169231-.666431.302585-.194616.133015-.353016.309692-.475877.531723-.119477.218308-.180062.461324-.180062.727355l.982893-.0264c0-.160431.04231-.303939.1276-.43357.08563-.133015.2068-.234215.363847-.302585.157046-.06837.425784-.128954.804523-.183785.669139-.09545 1.171416-.21323 1.506155-.349631v.339139c0 .406154-.04975.713478-.148923.92197-.129631.269416-.333723.482985-.610247.640031-.276523.153662-.591292.229139-.946339.229139-.358431.0-.632585-.08089-.820093-.245046-.184461-.163816-.276523-.369601-.276523-.615662z"/><path style="font-size:3.09841px;line-height:1.25;font-family:Arial;-inkscape-font-specification:Arial;fill:none;fill-opacity:1;stroke:#000;stroke-width:.179103;stroke-dasharray:none;stroke-opacity:1" d="m48.329632 79.07044v-.79877c-.423077.614647-.998462.921632-1.725478.921632-.320862.0-.621416-.06126-.901324-.184123-.276523-.122862-.482985-.276524-.619724-.460985-.133015-.187847-.226769-.416308-.2816-.686062-.03757-.181077-.05619-.467755-.05619-.86037v-3.369387h.921632v3.016033c0 .481292.01895.805877.05652.973077.05788.242339.180739.43357.368585.573355.187846.136738.419693.204769.696216.204769s.536123-.06972.778462-.209846c.242339-.14317.412923-.336093.512093-.578432.102215-.246061.153661-.601108.153661-1.065139v-2.913817h.921632v5.438065z" id="path44"/><path style="font-size:3.09841px;line-height:1.25;font-family:Arial;-inkscape-font-specification:Arial;fill:none;fill-opacity:1;stroke:#000;stroke-width:.179103;stroke-dasharray:none;stroke-opacity:1" d="m33.32129 77.447177.911408-.143169c.05111.3652.192924.645108.425108.839724.23557.194615.563201.291754.983232.291754.423077.0.73717-.08529.941939-.255877.204769-.174308.307323-.377385.307323-.609231.0-.208493-.09037-.372308-.271446-.491785-.126246-.08191-.440339-.186154-.941939-.312401-.675908-.170584-1.145355-.317477-1.40834-.440338-.259261-.126247-.457429-.298524-.593965-.51717-.133117-.221692-.199692-.466062-.199692-.732093.0-.242338.05463-.466062.163849-.670831.11264-.208154.26461-.38077.455839-.51717.143169-.105938.337785-.194615.583508-.266369.249447-.07514.515477-.112708.79877-.112708.4268.0.800801.0616 1.121662.184462.324247.122861.563201.290062.716862.501939.153662.208154.259262.488061.317478.839723l-.901324.122862c-.04095-.279908-.160431-.498554-.358431-.655601-.194616-.157046-.471139-.235569-.82957-.235569-.423077.0-.725324.07006-.906401.210185-.180738.139785-.271108.3036-.271108.491446.0.119477.03723.227108.11237.322554.07514.09917.192923.181077.353354.245724.0924.03418.363508.112707.814339.235569.651877.174308 1.106093.317477 1.36197.430185.2596.109323.462677.269754.609231.481293.146893.211877.220339.474523.220339.788616.0.307323-.09037.597385-.271446.870523-.177354.269754-.435262.479601-.773047.629878-.338123.146892-.720585.22-1.147047.22-.706708.0-1.246216-.146554-1.618186-.440339-.368685-.293446-.604221-.728708-.706639-1.305786z" id="path41"/><path id="path39" style="font-size:3.09841px;line-height:1.25;font-family:Arial;-inkscape-font-specification:Arial;fill:none;fill-opacity:1;stroke:#000;stroke-width:.179103;stroke-dasharray:none;stroke-opacity:1" d="m27.176956 73.508836c-.751013.0-1.361902.253847-1.833007.75917-.471071.504985-.706607 1.215416-.706607 2.130278.0.884063.231846 1.570463.696114 2.062248.467687.488062 1.09885.73277 1.894236.73277.631536.0 1.150431-.152985 1.556653-.45997.406222-.307323.684099-.739877.834308-1.296308L28.66717 77.319916c-.139954.389231-.329493.672523-.568447.850216-.238954.177354-.527831.265692-.865785.265692-.454013.0-.833056-.158061-1.136893-.475538-.303804-.317478-.473068-.775755-.507219-1.37314h4.056058c.0034-.109323.0054-.191908.0054-.246739.0-.8976-.230019-1.593139-.690869-2.088309-.460849-.494831-1.055188-.743262-1.782306-.743262l.01049.75917c.467686.0.848557.176677 1.142139.531723.191163.228801.30712.572678.348074 1.02994h-3.036374c.0308-.474185.188997-.853263.475742-1.136555.290163-.283631.647138-.425108 1.070419-.425108z"/><path id="path39-5" style="font-size:3.09841px;line-height:1.25;font-family:Arial;-inkscape-font-specification:Arial;fill:none;fill-opacity:1;stroke:#000;stroke-width:.179103;stroke-dasharray:none;stroke-opacity:1" d="m62.155119 73.509175c-.751047.0-1.36197.253846-1.833109.759169-.471139.505324-.70637 1.215417-.70637 2.130279.0.884401.231846 1.570801.695877 2.062248.467755.488061 1.098986.732769 1.894371.732769.63157.0 1.150432-.152646 1.556586-.459969.406154-.307324.684031-.739539.834308-1.29597l-.951416-.117108c-.140123.389231-.329662.672523-.568616.849877-.238954.177693-.527662.266031-.865785.266031-.453877.0-.832954-.1584-1.136893-.475877-.3036-.317477-.472831-.775416-.507016-1.372801h4.056126c.0034-.109323.0054-.192246.0054-.246739.0-.897939-.230154-1.593478-.691138-2.088309-.460647-.495169-1.054986-.743262-1.78234-.743262l.01049.758831c.467754.0.848862.176677 1.142309.531724.191231.2288.306984.572677.347938 1.030278h-3.03634c.0308-.474524.1892-.853601.475877-1.136894.290062-.283292.647139-.425108 1.070216-.425108z"/><path style="font-size:3.09841px;line-height:1.25;font-family:Arial;-inkscape-font-specification:Arial;fill:none;fill-opacity:1;stroke:#000;stroke-width:.179103;stroke-dasharray:none;stroke-opacity:1" d="m22.59371 79.07044v-7.506744h.921699v7.506744z" id="path38"/><path id="path36" style="font-size:3.09841px;line-height:1.25;font-family:Arial;-inkscape-font-specification:Arial;fill:none;fill-opacity:1;stroke:#000;stroke-width:.179103;stroke-dasharray:none;stroke-opacity:1" d="m19.112089 74.231114c.396.0.734597.172954 1.017958.517846.286744.344554.430252.863755.430252 1.556586.0.727016-.145437 1.264493-.439019 1.61277-.290163.344554-.64152.517508-1.05116.517508-.402838.0-.745124-.167538-1.02845-.501938-.283327-.334401-.425041-.85157-.425041-1.551509.0-.699601.150853-1.233355.451271-1.598555.303838-.368585.651607-.552708 1.044189-.552708l.142086-.722278c-.40964.0-.713173.07006-.962382.209846-.24921.136401-.471884.344555-.669884.621078v-.706708h-.839554v7.520959h.921767v-2.646433c.157046.198.355791.361816.598163.491447.245791.129631.521807.194277.829062.194277.419862.0.820906-.117785 1.199847-.353354.382327-.238954.671272-.579447.869272-1.02317.201418-.447108.302585-.949724.302585-1.506155.0-.518862-.0902-.995416-.271108-1.428647-.180942-.436955-.449545-.775755-.804558-1.014709-.355046-.238954-.76357-.358431-1.17321-.358431z"/><path style="font-size:3.09841px;line-height:1.25;font-family:Arial;-inkscape-font-specification:Arial;fill:none;fill-opacity:1;stroke:#000;stroke-width:.179103;stroke-dasharray:none;stroke-opacity:1" d="m8.0461485 79.07044v-5.438065h.8243914v.763231c.1706862-.266369.3976926-.479939.6810528-.64037.2833263-.163815.6059483-.245723.9677973-.245723.402804.0.732229.0836.988275.251139.259431.1672.442065.401077.547902.701293.430117-.634955.989967-.952432 1.679515-.952432.539373.0.954157.150277 1.244321.450831.290163.296831.435228.756124.435228 1.377201v3.732895h-.916555v-3.425572c0-.368584-.03073-.633262-.09216-.793692-.05805-.163816-.165575-.295139-.322588-.394308-.157046-.09883-.341372-.148585-.553046-.148585-.382327.0-.699804.128277-.952398.384154-.252628.252493-.378942.658985-.378942 1.218801V79.07044H11.27724v-3.533202c0-.409539-.07511-.716862-.225314-.921632-.150209-.204769-.396-.307323-.737373-.307323-.259431.0-.5001109.06837-.7219726.205108-.2184771.1364-.3772157.336092-.4762157.599077-.099.262646-.1484832.641724-.1484832 1.136555v2.821417z" id="path35"/><path style="font-size:3.09841px;line-height:1.25;font-family:Arial;-inkscape-font-specification:Arial;fill:none;fill-opacity:1;stroke:#000;stroke-width:.179103;stroke-dasharray:none;stroke-opacity:1" d="m5.7213899 79.07044v-5.438065h.921733v5.438065z" id="path34"/><path style="font-size:3.09841px;line-height:1.25;font-family:Arial;-inkscape-font-specification:Arial;fill:none;fill-opacity:1;stroke:#000;stroke-width:.179103;stroke-dasharray:none;stroke-opacity:1" d="m5.7213899 72.623759v-1.060063h.921733v1.060063z" id="path33"/><path style="font-size:3.09841px;line-height:1.25;font-family:Arial;-inkscape-font-specification:Arial;fill:none;fill-opacity:1;stroke:#000;stroke-width:.179103;stroke-dasharray:none;stroke-opacity:1" d="M.10413504 77.447177l.91146166-.143169c.051206.3652.1928759.645108.4250065.839724.2355491.194615.5632647.291754.9831502.291754.4233007.0.7373627-.08529.9421863-.255877.2048303-.174308.3072488-.377385.3072488-.609231.0-.208493-.090471-.372308-.2714125-.491785C3.275479 76.996685 2.9614176 76.892439 2.4596006 76.766192 1.7836857 76.595608 1.3143001 76.448715 1.0514439 76.325854.79200281 76.199607.59400605 76.02733.45745703 75.808684.32432275 75.586992.2577551 75.342622.2577551 75.076591c0-.242338.0546199-.466062.16385882-.670831.11265362-.208154.26456543-.38077.45573203-.51717.14337575-.105938.33795745-.194615.58374505-.266369.2492026-.07514.5154705-.112708.7988104-.112708.4267123.0.8005163.0616 1.1214051.184462.324307.122861.5632607.290062.7168885.501939.1535939.208154.2594309.488061.3174771.839723L3.5144499 75.158499C3.4734622 74.878591 3.3539953 74.659945 3.1560027 74.502898 2.961421 74.345852 2.6849079 74.267329 2.3264701 74.267329c-.4233006.0-.725415.07006-.9063431.210185-.1809248.139785-.2713889.3036-.2713889.491446.0.119477.037552.227108.1126537.322554.075105.09917.1928758.181077.3533202.245724.09217.03418.3635587.112707.8141698.235569.6520196.174308 1.1060451.317477 1.3620576.430185.2594648.109323.4625757.269754.6093665.481293.1467909.211877.2201694.474523.2201694.788616.0.307323-.090437.597385-.2713786.870523-.1775232.269754-.4352619.479601-.773216.629878-.3379473.146892-.7202832.22-1.1469989.22-.7066371.0-1.2460064-.146554-1.61810113-.440339C.44209763 78.459517.20654718 78.024255.10413504 77.447177z" id="text1"/><path id="path57" style="font-size:3.09841px;line-height:1.25;font-family:Arial;-inkscape-font-specification:Arial;fill:none;fill-opacity:1;stroke:#000;stroke-width:.179103;stroke-dasharray:none;stroke-opacity:1" d="m40.996857 74.231791c-.396.0-.734462.172954-1.017754.517846-.287016.344893-.430524.863755-.430524 1.556586.0.727354.145539 1.264493.438985 1.61277.2904.344554.641724.517508 1.051262.517508.40277.0.745293-.1672 1.028586-.501939.283292-.3344.425108-.851569.425108-1.55117.0-.699939-.150954-1.233355-.451508-1.598893-.3036-.368585-.651539-.552708-1.044155-.552708l-.142154-.722278c.409878.0.713478.07006.962586.209846.249107.136739.471815.344554.669815.621078v-.706708h.839386v7.520959h-.921632v-2.646433c-.157046.198-.355723.361816-.598062.491447-.245723.129969-.521908.194277-.829231.194277-.419693.0-.82077-.117785-1.199847-.353354-.382123-.238954-.67117-.579447-.86917-1.02317-.201385-.447108-.302585-.949386-.302585-1.505817.0-.518862.09037-.995416.271108-1.428985.181077-.436955.449477-.775416.804524-1.014709.355046-.238954.76357-.358431 1.173108-.358431z"/><path id="path39-4" style="font-size:3.09841px;line-height:1.25;font-family:Arial;-inkscape-font-specification:Arial;fill:none;fill-opacity:1;stroke:#000;stroke-width:.179103;stroke-dasharray:none;stroke-opacity:1" d="m175.46569 67.999694c-.75104.0-1.36197.253846-1.83311.758831-.47113.505323-.70637 1.215755-.70637 2.130617.0.884062.23185 1.570463.69588 2.061909.46776.488401 1.09899.733108 1.89437.733108.63157.0 1.15043-.152984 1.55659-.460308.40615-.306984.68403-.739539.83431-1.29597l-.95142-.117108c-.14012.389231-.32966.672524-.56862.849878-.23895.177692-.52766.266031-.86578.266031-.45388.0-.83295-.1584-1.13689-.475877-.3036-.317478-.47283-.775416-.50702-1.372801h4.05613c.003-.109324.005-.191908.005-.246739.0-.897601-.23015-1.593478-.69114-2.088309-.46064-.494831-1.05498-.743262-1.782-.743262l.0105.759169c.46742.0.84853.176678 1.14197.531385.19124.228801.30699.573016.34794 1.030278h-3.03634c.0308-.474523.1892-.8536.47588-1.136893.29006-.283292.64714-.42477 1.07055-.42477z"/><path id="path29-5" style="font-size:3.09841px;line-height:1.25;font-family:Arial;-inkscape-font-specification:Arial;fill:none;fill-opacity:1;stroke:#000;stroke-width:.179103;stroke-dasharray:none;stroke-opacity:1" d="m190.63284 68.604863c-.55981.484678-.83972 1.229971-.83972 2.236894.0.918247.23388 1.621232.70129 2.109294.47114.488401 1.08782.73277 1.84902.73277.47452.0.91046-.112031 1.30985-.334062.40277-.221692.7084-.531046.91655-.930431.21154-.40277.31849-.954801.31849-1.654402.0-.863754-.2376-1.538985-.71212-2.027386-.47452-.491446-1.08545-.737846-1.83277-.737846v.762554c.45388.0.83295.174646 1.13689.522924.30699.344892.45997.852585.45997 1.525108.0.713478-.15095 1.245201-.45489 1.593478-.30394.348278-.68471.521232-1.14197.521232-.46099.0-.84379-.171262-1.14739-.516155-.30394-.347938-.45658-.870523-.45658-1.567078.0-.696216.15264-1.217108.45658-1.562001.3036-.344554.6864-.517508 1.14739-.517508v-.762554c-.67252.0-1.24317.2024-1.71059.605169"/><path style="font-size:3.09841px;line-height:1.25;font-family:Arial;-inkscape-font-specification:Arial;text-align:center;text-anchor:middle;fill:none;fill-opacity:1;stroke:#000;stroke-width:.179103;stroke-dasharray:none;stroke-opacity:1" d="m199.46094 73.560959v-5.438065h.82416v.762893c.17092-.26637.39769-.479601.68132-.640032.28329-.163815.60585-.246061.96766-.246061.40277.0.73209.08394.98831.251138.25926.1672.44203.401078.54797.701293.43018-.634954.99-.952431 1.67945-.952431.53951.0.95412.150277 1.24418.450831.2904.296831.43526.756123.43526 1.377201v3.733233h-.91655v-3.42591c0-.368585-.0308-.633262-.0921-.793693-.0582-.163815-.16551-.295138-.32256-.394308-.15704-.09883-.3415-.148246-.55304-.148246-.38246.0-.69994.127939-.95243.383816-.2525.252831-.37908.658985-.37908 1.218801v3.15954h-.92163v-3.533202c0-.409878-.0751-.716862-.22542-.92197-.14994-.20477-.396-.306985-.73717-.306985-.2596.0-.50024.06803-.72194.204769-.21864.1364-.37738.336093-.47621.599078-.0992.262985-.14859.641723-.14859 1.136893v2.821417z" id="path19"/><path style="font-size:3.09841px;line-height:1.25;font-family:Arial;-inkscape-font-specification:Arial;text-align:center;text-anchor:middle;fill:none;fill-opacity:1;stroke:#000;stroke-width:.179103;stroke-dasharray:none;stroke-opacity:1" d="m195.95854 73.560959v-5.438065h.82923v.824154c.21188-.385508.40649-.640031.58385-.762893.18107-.122861.37907-.184123.594-.184123.31071.0.62649.09883.94735.296831l-.31748.855293c-.22541-.133354-.45049-.199692-.6759-.199692-.20139.0-.38247.06126-.5429.184123-.16043.119477-.27483.286677-.34286.501939-.10255.327631-.15366.686062-.15366 1.075293v2.84714z" id="path18"/><path style="font-size:3.09841px;line-height:1.25;font-family:Arial;-inkscape-font-specification:Arial;text-align:center;text-anchor:middle;fill:none;fill-opacity:1;stroke:#000;stroke-width:.179103;stroke-dasharray:none;stroke-opacity:1" d="m187.44284 73.560959v-4.721203h-.814v-.716862h.814v-.57877c0-.3652.0325-.636646.0975-.814.0887-.239293.24403-.431878.46572-.57877.22542-.150277.53951-.225416.94228-.225416.2596.0.54628.0308.86037.0924l-.13843.803847c-.19123-.03418-.37197-.05145-.54256-.05145-.28024.0-.47824.05991-.594.179385-.11609.119477-.1743.3432-.1743.670831v.501939h1.06006v.716862h-1.06006v4.720865z" id="path15"/><path style="font-size:3.09841px;line-height:1.25;font-family:Arial;-inkscape-font-specification:Arial;text-align:center;text-anchor:middle;fill:none;fill-opacity:1;stroke:#000;stroke-width:.179103;stroke-dasharray:none;stroke-opacity:1" d="m178.45126 73.560959 1.98678-2.826833-1.83853-2.611232h1.15212l.83465 1.274985c.15705.242339.28363.445416.37908.609232.15028-.225416.28837-.425108.41461-.599078l.91656-1.285139h1.10102l-1.87914 2.560125 2.02264 2.87794h-1.13181l-1.11625-1.689939-.29683-.455908-1.42865 2.145847z" id="path14"/><path style="font-size:3.09841px;line-height:1.25;font-family:Arial;-inkscape-font-specification:Arial;text-align:center;text-anchor:middle;fill:none;fill-opacity:1;stroke:#000;stroke-width:.179103;stroke-dasharray:none;stroke-opacity:1" d="m170.88292 73.560959v-7.507082h.92163v7.507082z" id="path11"/><path style="font-size:3.09841px;line-height:1.25;font-family:Arial;-inkscape-font-specification:Arial;text-align:center;text-anchor:middle;fill:none;fill-opacity:1;stroke:#000;stroke-width:.179103;stroke-dasharray:none;stroke-opacity:1" d="m156.33549 73.560959v-5.438065h.82416v.762893c.17092-.26637.39769-.479601.68132-.640032.2833-.163815.60585-.246061.96767-.246061.40276.0.73209.08394.9883.251138.25927.1672.44203.401078.54797.701293.42985-.634954.99-.952431 1.67945-.952431.53951.0.95412.150277 1.24419.450831.2904.296831.43526.756123.43526 1.377201v3.733233h-.91656v-3.42591c0-.368585-.0308-.633262-.0921-.793693-.0582-.163815-.16551-.295138-.32255-.394308-.15705-.09883-.34151-.148246-.55305-.148246-.38246.0-.69994.127939-.95243.383816-.25283.252831-.37908.658985-.37908 1.218801v3.15954h-.92163v-3.533202c0-.409878-.0751-.716862-.22541-.92197-.14994-.20477-.396-.306985-.73717-.306985-.2596.0-.50025.06803-.72194.204769-.21865.1364-.37739.336093-.47622.599078-.0992.262985-.14858.641723-.14858 1.136893v2.821417z" id="path8"/><path style="font-size:3.09841px;line-height:1.25;font-family:Arial;-inkscape-font-specification:Arial;text-align:center;text-anchor:middle;fill:none;fill-opacity:1;stroke:#000;stroke-width:.179103;stroke-dasharray:none;stroke-opacity:1" d="m148.8081 71.568773.90641.117785c-.0992.6248-.35336 1.114555-.7629 1.469601-.40649.351662-.9064.527662-1.5004.527662-.74428.0-1.34335-.242339-1.79723-.727354-.45083-.488062-.67591-1.186309-.67591-2.094064.0-.587231.0971-1.101016.29176-1.541354.19461-.440339.48975-.770001.88575-.988309.39938-.222031.83295-.332708 1.30071-.332708.59061.0 1.0736.149939 1.44895.450493.3757.296831.61634.720246.72228 1.269908l-.89625.138093c-.0853-.3652-.23726-.640031-.45557-.824155-.21526-.184461-.47621-.276523-.78353-.276523-.46437.0-.84142.1672-1.13182.5016-.29006.331355-.43526.856986-.43526 1.577232.0.730401.14012 1.261447.42003 1.592463.27991.331016.64511.496862 1.09594.496862.36181.0.66372-.111015.90606-.333046.24268-.221693.396-.563201.46098-1.024186z" id="path4"/><path style="font-size:3.09841px;line-height:1.25;font-family:Arial;-inkscape-font-specification:Arial;text-align:center;text-anchor:middle;fill:none;fill-opacity:1;stroke:#000;stroke-width:.179103;stroke-dasharray:none;stroke-opacity:1" d="M181.10108 86.669584V79.16284h.92163v4.280526l2.18139-2.211847h1.19308l-2.07883 2.01757 2.28867 3.420495h-1.13655l-1.79757-2.780463-.65019.624462v2.156001z" id="path54"/><path style="font-size:3.09841px;line-height:1.25;font-family:Arial;-inkscape-font-specification:Arial;text-align:center;text-anchor:middle;fill:none;fill-opacity:1;stroke:#000;stroke-width:.179103;stroke-dasharray:none;stroke-opacity:1" d="m179.40099 84.677398.9064.117785c-.0992.6248-.35335 1.114893-.76289 1.469939-.4065.351324-.9064.527324-1.5004.527324-.74428.0-1.34336-.242339-1.79724-.727355-.45083-.488061-.67591-1.18597-.67591-2.094063.0-.587231.0971-1.101016.29176-1.541355.19461-.440338.48975-.769662.88575-.988308.39939-.222031.83296-.332708 1.30071-.332708.59062.0 1.0736.149939 1.4493.450493.37535.296831.616.720246.72193 1.269908l-.89624.138093c-.0853-.365201-.23726-.640032-.45557-.824155-.21526-.184461-.47622-.276523-.78354-.276523-.46437.0-.84142.1672-1.13182.5016-.29006.331354-.43526.856986-.43526 1.577232.0.730401.14012 1.261447.42003 1.592463.27991.331016.64511.496862 1.09594.496862.36182.0.66372-.111016.90606-.333047.24268-.221692.396-.5632.46099-1.024185z" id="path53"/><path style="font-size:3.09841px;line-height:1.25;font-family:Arial;-inkscape-font-specification:Arial;text-align:center;text-anchor:middle;fill:none;fill-opacity:1;stroke:#000;stroke-width:.179103;stroke-dasharray:none;stroke-opacity:1" d="m173.52766 86.669584v-5.438065h.92163v5.438065z" id="path52"/><path style="font-size:3.09841px;line-height:1.25;font-family:Arial;-inkscape-font-specification:Arial;text-align:center;text-anchor:middle;fill:none;fill-opacity:1;stroke:#000;stroke-width:.179103;stroke-dasharray:none;stroke-opacity:1" d="M173.52766 80.222564V79.16284h.92163v1.059724z" id="path51"/><path style="font-size:3.09841px;line-height:1.25;font-family:Arial;-inkscape-font-specification:Arial;text-align:center;text-anchor:middle;fill:none;fill-opacity:1;stroke:#000;stroke-width:.179103;stroke-dasharray:none;stroke-opacity:1" d="m170.02018 86.669584v-5.438065h.82957v.824154c.21154-.385508.40616-.640031.58351-.762893.18108-.122861.37908-.184123.594-.184123.31071.0.62649.09883.94735.296831l-.31747.855293c-.22508-.133354-.4505-.199692-.67591-.199692-.20139.0-.38212.06126-.54255.184123-.16077.119477-.27484.287015-.34321.501939-.10255.327631-.15366.686062-.15366 1.075293v2.84714z" id="path50"/><path style="font-size:3.09841px;line-height:1.25;font-family:Arial;-inkscape-font-specification:Arial;text-align:center;text-anchor:middle;fill:none;fill-opacity:1;stroke:#000;stroke-width:.179103;stroke-dasharray:none;stroke-opacity:1" d="m169.12901 85.845091.13336.814001c-.2596.05483-.49179.08191-.69656.08191-.3344.0-.594-.0528-.77812-.158739-.18446-.1056-.31409-.244031-.38923-.414616-.0751-.173969-.11271-.537477-.11271-1.090524v-3.12874h-.67591v-.716862h.67591v-1.34674l.91655-.553046v1.899786h.92671v.716862h-.92671v3.179848c0 .262647.0152.431877.046.507016.0342.0748.087.134708.15874.179046.0751.04434.18108.06668.31748.06668.10255.0.23726-.01218.40446-.03588z" id="path5"/><path id="path56" style="font-size:3.09841px;line-height:1.25;font-family:Arial;-inkscape-font-specification:Arial;fill:none;fill-opacity:1;stroke:#000;stroke-width:.179103;stroke-dasharray:none;stroke-opacity:1" d="m167.40116 68.72231c.396.0.73447.172954 1.01776.517508.28668.344892.43018.863754.43018 1.556585.0.727355-.1452 1.264494-.43898 1.612771-.29006.344892-.64139.517846-1.05092.517846-.40311.0-.7453-.167538-1.02859-.502277-.28329-.3344-.42511-.85157-.42511-1.55117.0-.699939.15096-1.233355.45151-1.598555.3036-.368924.65154-.552708 1.04415-.552708l.14182-.722616c-.40954.0-.71314.07006-.96225.209846-.2491.136739-.47181.344554-.66981.621077v-.706708h-.83973v7.520959h.92197v-2.646432c.15705.198.35573.361815.59807.491785.24572.129631.5219.193938.82923.193938.41969.0.82077-.117784 1.19984-.353354.38213-.238954.67117-.579446.86917-1.02317.20139-.447108.30259-.949385.30259-1.505816.0-.518862-.0904-.995416-.27111-1.428986-.18108-.436954-.44948-.775416-.80452-1.01437-.35505-.238954-.76357-.358769-1.17345-.358769z"/><path id="path58" style="font-size:3.09841px;line-height:1.25;font-family:Arial;-inkscape-font-specification:Arial;fill:none;fill-opacity:1;stroke:#000;stroke-width:.179103;stroke-dasharray:none;stroke-opacity:1" d="m150.99964 68.604863c-.55981.484678-.83972 1.229971-.83972 2.236894.0.918247.23388 1.621232.70129 2.109294.47114.488401 1.08748.73277 1.84902.73277.47452.0.91046-.112031 1.30985-.334062.40277-.221692.7084-.531046.91655-.930431.21154-.40277.31816-.954801.31816-1.654402.0-.863754-.23727-1.538985-.71179-2.027386-.47452-.491446-1.08545-.737846-1.83277-.737846v.762554c.45388.0.83296.174646 1.13689.522924.30699.344892.45997.852585.45997 1.525108.0.713478-.15095 1.245201-.45489 1.593478-.30394.348278-.68471.521232-1.14197.521232-.46098.0-.84378-.171262-1.14738-.516155-.30394-.347938-.45659-.870523-.45659-1.567078.0-.696216.15265-1.217108.45659-1.562001.3036-.344554.6864-.517508 1.14738-.517508v-.762554c-.67252.0-1.24317.2024-1.71059.605169"/><path id="path2" style="fill:none;fill-opacity:1;stroke:#000;stroke-width:.179103;stroke-linecap:butt;stroke-linejoin:miter;stroke-dasharray:none;stroke-opacity:1" d="m141.90348 38.636103 7.69595 18.275921 20.68069-11.543578-12.81856-1.320677-5.96776 4.241603-2.21963-6.716436s-.18988-8.854769 2.90671-8.761015c.32052.0098.6759.114874 1.07055.335822 4.20877 2.356573 1.43406 5.656237-.32357 3.594328-1.75729-2.061909-2.72902.884062-.92535 1.885571 1.804 1.001508 5.39677-1.91434 6.27542-.02911.87864 1.885232-.50736 4.830865-.50736 4.830865l12.8189 1.320339s4.80887-8.01579 1.76305-13.145787c-3.04615-5.130032-14.73764 1.74169-20.99004-.983638-6.25241-2.725362-2.88607-10.740983 3.20591-5.129964 6.09197 5.610986 15.71173-3.366374 1.12301-9.778939l1.93567 2.784863c1.7116.0 3.09895 1.387525 3.09895 3.099092s-1.38735 3.099058-3.09895 3.099058c-1.71161.0-3.0993-1.387491-3.0993-3.099058s.7436-3.202153 2.45486-3.202153l-1.93532-2.78483c-1.36772-.601176-1.95699-.785265-3.06748-.811665-10.73465-.255099-10.07635 23.839386-10.07635 23.839386z"/><path id="path59" style="fill:none;fill-opacity:1;stroke:#000;stroke-width:.179103;stroke-linecap:butt;stroke-linejoin:miter;stroke-dasharray:none;stroke-opacity:1" d="m178.76028 38.636103 7.69561 18.275921 20.68103-11.543578-12.81891-1.320677-5.96775 4.241603-2.21964-6.716436s-.18987-8.854769 2.90705-8.761015c.32019.0098.67591.114874 1.07022.335822 4.20877 2.356573 1.43406 5.656237-.32357 3.594328-1.75729-2.061909-2.72868.884062-.92502 1.885571 1.80367 1.001508 5.08708-1.295971 5.96607.589262.87865 1.885232-.50736 4.830865-.50736 4.830865l12.81891 1.320677s4.80886-8.01579 1.76304-13.145956c-3.04615-5.130066-14.42862 1.123219-20.68103-1.602109-6.25206-2.725362-2.88572-10.740983 3.20625-5.129964 6.09198 5.610986 15.7114-3.366375 1.12268-9.778939l1.93566 2.784863c1.7116.0 3.0993 1.387524 3.0993 3.099092.0 1.711567-1.3877 3.099057-3.0993 3.099057s-3.09895-1.38749-3.09895-3.099057c0-1.711568 1.38735-3.099092 3.09895-3.099092l-1.93566-2.784863c-1.36772-.601176-2.60074-.888361-3.71123-.914761-10.735-.255099-10.07635 23.839386-10.07635 23.839386z"/><path style="font-size:3.10007px;line-height:1.25;font-family:Arial;-inkscape-font-specification:Arial;fill:none;stroke:#000;stroke-width:.10501" d="M171.24846 3.3898102V.12670199h.49754v.46396476c.23997-.3584713.58588-.5377078 1.03874-.5377078.19664.0.37671.0358475.54086.10754284.16585.069651.28972.16182874.37163.27653377.0819.11471486.13945.25093219.17194.40865876.0206.10242869.0308.28166448.0308.53770748v2.0064084h-.55305V1.404911c0-.2253241-.0213-.3932959-.0643-.50390864-.043-.11266039-.11981-.20176384-.23049-.26731711-.10864-.0675976-.23658-.101393-.38415-.101393-.23557.0-.43933.0747662-.6116.22430201-.16991.14953241-.25486.43323784-.25486.85111294V3.389844z" id="path61"/><path style="font-size:3.10007px;line-height:1.25;font-family:Arial;-inkscape-font-specification:Arial;fill:none;stroke:#000;stroke-width:.10501" d="m167.88076 2.415805.54696-.086027c.0308.2191811.11575.3871495.25486.5039086.14148.1167592.33812.1751371.58994.1751371.25418.0.44271-.051213.56557-.1536413.12286-.1044697.18446-.2263498.18446-.3656403.0-.1249601-.0545-.2232833-.16314-.2949728-.0758-.049165-.264-.1116417-.56523-.1874368-.40548-.1024287-.68741-.19051-.84514-.2642439-.15569-.075795-.27449-.1792426-.3564-.3103356-.0799-.1331475-.11981-.27961-.11981-.43938431.0-.14543703.0328-.27961005.0985-.40251229.0677-.12496009.15874-.22840417.27348-.31033696.086-.0634931.20273-.11675003.3503-.15977089.1496-.0450628.30936-.0675942.47927-.0675942.25621.0.48027.03686965.67286.11060931.19461.0737373.33812.17410914.43018.30111726.0921.12495671.1557.29292514.19056.50390868l-.54087.0737441c-.0244-.16796848-.0961-.29906827-.21492-.39329603-.11677-.0942278-.28295-.14133825-.49788-.14133825-.25418.0-.43526.0419896-.5439.12597209-.10865.0839791-.1628.18230228-.1628.29496944.0.0716929.0223.13621735.0677.19356625.045.059407.11575.1085684.21188.1474915.0552.020487.2183.067601.4884.1413383.39126.1044696.66372.1905032.81738.2581008.15569.06555.27754.1618253.36588.2888264.088.127001.132.2847309.132.4731831.0.1843567-.0542.3584716-.1628.5223447-.10662.1618253-.26129.2878008-.46403.3779332-.20274.088068-.43222.1321351-.68843.1321351-.42376.0-.74767-.088091-.97071-.2642571-.22136-.176166-.3625-.4373366-.4241-.7835187z" id="text60"/><path id="path65" style="font-size:3.09841px;line-height:1.25;font-family:Arial;-inkscape-font-specification:Arial;fill:none;fill-opacity:1;stroke:#000;stroke-width:.107414;stroke-dasharray:none;stroke-opacity:1" d="m179.64603.48739191c.23727.0.44034.103725.61025.31049469.17194.2067798.25825.5179684.25825.9335758.0.4360741-.0873.7583134-.26333.967141-.17396.2067798-.38483.3104946-.63055.3104946-.24166.0-.44677-.1004182-.61668-.3010516-.1699-.2006333-.25486-.5107286-.25486-.930428.0-.4196994.0904-.7396879.27043-.95875056.18243-.2211137.39093-.33147255.62649-.33147255l.085-.4332216c-.24539 203e-8-.42748.04193541-.57708.12587055-.14926.0818841-.28295.20655036-.40175.3723831V.12864476h-.5033V4.6391742h.55271V3.052103c.0941.1187459.21323.2169608.35877.2947596.14723.077809.31274.1164278.4972.1164278.25182.0.49213-.070603.71957-.2118842.22914-.1433081.40243-.3474953.52123-.6136447.12083-.2681971.18142-.5694417.18142-.9031548.0-.311192-.0538-.5969925-.16246-.8570022-.10865-.26205742-.26976-.46508711-.48265-.6083986-.21289-.1433081-.45794-.21503492-.70366-.21503492z"/><path id="path66" style="font-size:3.09841px;line-height:1.25;font-family:Arial;-inkscape-font-specification:Arial;fill:none;fill-opacity:1;stroke:#000;stroke-width:.107414;stroke-dasharray:none;stroke-opacity:1" d="m174.56132 2.5292472c0 .2722925.0958.4963136.28837.6723848.19259.1740202.46843.2611846.82653.2611846.21695.0.42003-.035335.60855-.1069848.19022-.071656.38788-.1952112.59265-.3692347.0166.1535601.0528.2881528.11.4028069h.57707c-.0697-.1248859-.11609-.2551023-.1408-.3902229-.0227-.1371785-.0335-.4627077-.0335-.9765841V1.2851802c0-.2456827-.01-.41562432-.0284-.50979793-.0328-.15150903-.09-.27620851-.17194-.3744775-.0819-.10031703-.20985-.18309463-.38382-.24860729-.17397-.06550251-.4004-.09859053-.67861-.09859053-.28059.0-.52665.03968464-.73954.11749024-.21323.0757545-.37637.18502385-.48908.32832519-.11237.14125702-.19292.32774947-.24234.55909822l.54052.073419c.0592-.23134205.15096-.39243632.27348-.48252131.12489-.0921361.31714-.13742226.57708-.13742226.27855.0.48806.0618302.62954.18670568.10424.0921361.15704.25102357.15704.47622929.0.020477-.001.068995-.003.1447499-.21086.073704-.53985.1366506-.98594.1898534-.21932.026603-.38246.054198-.49111.082859-.14723.040944-.28092.1016367-.39972.1814697-.11643.079833-.21154.1858155-.28533.3188852-.0714.1310287-.10796.2766823-.10796.4363686l.5896-.01584c0-.096215.0254-.1823429.0765-.2601451.0511-.079833.12421-.140526.21831-.1814697.0941-.040944.2552-.077379.4823-.1101389.40142-.057322.70265-.1279013.90336-.2097921v.2034967c0 .2436282-.0298.4279139-.0894.5528029-.0778.1617407-.20003.2897504-.36587.3839206-.16585.092136-.35471.1374222-.5676.1374222-.21493.0-.37942-.048576-.49179-.1468619-.11068-.098266-.16584-.2218279-.16584-.3692347z"/><path id="path12" style="color:#000;fill:none;stroke:#000;stroke-width:.2;stroke-dasharray:none;stroke-opacity:1" d="M3.5527547 95.765731-.0020670573 99.318486 3.5527547 102.87331 4.3010295 102.12297 2.0272664 99.849719H207.97284L205.69907 102.12297 206.44735 102.87331 210.00217 99.318486 206.44735 95.765731 205.69907 96.513489 207.9749 98.789319H2.0251994l2.2758301-2.27583L3.5527547 95.765731z"/><path style="-inkscape-font-specification:Arial;stroke-width:.2;stroke-dasharray:none;stroke:#000;stroke-opacity:1;fill:none" d="m114.70785 97.611832v-5.48802h.83199v.769976q.25838-.403074.68729-.645953.42891-.248046.97668-.248046.60978.0.99735.253214.39274.253213.55294.707965.65112-.961179 1.69498-.961179.81649.0 1.25574.454751.43924.449584.43924 1.390092v3.7672h-.925v-3.457143q0-.558103-.093-.800982-.0879-.248046-.32556-.397907-.23771-.149861-.5581-.149861-.57878.0-.96118.387572-.38241.382404-.38241 1.229895v3.188426h-.93017v-3.565663q0-.620115-.22737-.930173-.22738-.310057-.74414-.310057-.39274.0-.72864.206705-.33073.206705-.48059.604612t-.14986 1.147213v2.847363z" id="path24"/><path style="-inkscape-font-specification:Arial;stroke-width:.2;stroke-dasharray:none;stroke:#000;stroke-opacity:1;fill:none" d="m105.89188 97.611832v-5.48802h.83199v.769976q.25838-.403074.68729-.645953.42891-.248046.97668-.248046.60978.0.99735.253214.39274.253213.55294.707965.65112-.961179 1.69498-.961179.81649.0 1.25573.454751.43925.449584.43925 1.390092v3.7672h-.925v-3.457143q0-.558103-.093-.800982-.0879-.248046-.32556-.397907-.23771-.149861-.5581-.149861-.57878.0-.96118.387572-.38241.382404-.38241 1.229895v3.188426h-.93017v-3.565663q0-.620115-.22738-.930173-.22737-.310057-.74413-.310057-.39274.0-.72864.206705-.33073.206705-.48059.604612t-.14986 1.147213v2.847363z" id="path23"/><path style="-inkscape-font-specification:Arial;stroke-width:.2;stroke-dasharray:none;stroke:#000;stroke-opacity:1;fill:none" d="m97.365294 97.611832h-.930172v-5.927268q-.335896.320393-.883665.640785-.5426.320393-.976681.48059v-.899167q.780312-.366902 1.364253-.888832.583942-.52193.826821-1.012855h.599444z" id="path13"/><path style="-inkscape-font-specification:Arial;stroke-width:.2;stroke-dasharray:none;stroke:#000;stroke-opacity:1;fill:none" d="m92.864292 96.717832v.894h-5.007431q-.01033-.335896.108521-.645954.191202-.511595.609779-1.007687.423746-.496092 1.21956-1.147213 1.235063-1.012855 1.669144-1.601964.434081-.594277.434081-1.121375.0-.552936-.397908-.930173-.392739-.382405-1.028357-.382405-.671792.0-1.074867.403075t-.408242 1.116208l-.956011-.09819q.09819-1.069699.73897-1.627803.640786-.563271 1.72082-.563271 1.090369.0 1.725987.604612.635618.604613.635618 1.498612.0.454751-.186034.894-.186035.439248-.620115.925005-.428913.485757-1.431433 1.333247-.837155.702798-1.074866.956011-.237711.248047-.39274.50126z" id="text12"/></svg><svg xmlns="http://www.w3.org/2000/svg" width="109" height="20"><linearGradient id="a" x2="0" y2="100%"><stop offset="0" stop-color="#bbb" stop-opacity=".1"/><stop offset="1" stop-opacity=".1"/></linearGradient><rect rx="3" width="109" height="20" fill="#555"/><rect rx="3" x="64" width="45" height="20" fill="#7b5"/><path fill="#7b5" d="M64 0h4v20h-4z"/><rect rx="3" width="109" height="20" fill="url(#a)"/><g fill="#fff" text-anchor="middle" font-family="DejaVu Sans,Verdana,Geneva,sans-serif" font-size="11"><text x="30" y="15" fill="#010101" fill-opacity=".3">license</text><text x="30" y="14">license</text><text x="85" y="15" fill="#010101" fill-opacity=".3">MIT</text><text x="85" y="14">MIT</text></g></svg><svg xmlns="http://www.w3.org/2000/svg" height="1106" width="3990"><path d="m234.43804 111.69821c50.21866 26.50627 126.75595-3.87395 151.46369-35.941621 24.70774-32.067668 10.41159-51.980992-16.41089-58.072772s-42.17661 10.494756-57.68933 33.13636c-15.51272 22.641602-22.3395 49.640453-26.04984 89.319923-3.71034 39.67947-2.57151 103.67609-16.65175 144.69433s-40.79012 59.98014-80.0876 71.50199-96.607494 6.67866-126.372407-24.20296c-29.764916-30.88162-24.693439-84.55794.62001-107.05538 25.313453-22.49744 49.916587-21.8463 53.386947 18.74456s-77.347635 106.99944-102.157295 102.59574c-24.80966-4.4037-9.1930819.0-13.78962288.0"/><path d="m535.44946 262.31206c16.02735-13.54645 29.98118-31.39768 32.51139-52.84016 1.4974-10.24434-1.94415-22.06454-11.64632-27.13714-22.66026-14.31032-51.37591-9.68663-75.27088-1.12303-29.57925 11.19994-56.66841 28.48168-80.87983 48.69857-15.56749 13.48245-30.31327 28.65126-40.17476 46.87113-10.56334 25.04076 5.93271 58.80187 33.76392 62.35287 20.97698 3.69753 41.31134-5.15667 59.15595-15.26739 23.68053-12.07041 45.37059-27.68722 65.11773-45.42392 5.85816-4.99109 11.66007-10.04795 17.4228-15.14884"/><path d="m605.17805 221.06416c-39.71057 22.89155-90.21146 57.33437-110.62013 81.46882-20.40867 24.13445 1.74636 32.16167 21.51346 33.96557s40.22731-5.81242 63.90833-18.83825c23.68102-13.02583 54.88215-39.05314 73.09016-60.24005s37.84165-41.69088 43.78312-57.46575c5.94147-15.77487 6.81292-20.38898-2.3045-26.03079"/><path d="m576.69736 336.95111c59.46452-49.53559 110.50457-110.94455 181.15663-145.53797 21.55772-14.53068 69.21456-30.38164 74.52476 8.12435 2.15457 32.87115-24.99905 56.36851-41.3729 81.85669-11.33394 14.91071-34.85688 47.22341-38.29416 51.12061 38.40925-59.07476 94.0006-105.23813 152.94098-142.74425 21.53324-14.17578 76.3474-17.732 63.14039 22.44093-6.44013 30.30909-29.58192 52.20309-51.31162 72.13403-22.35245 20.18703-11.93986 55.81184 21.21245 48.89199 28.04358-1.72994 49.86098-21.80465 73.62851-34.51546 51.0484-39.90132 89.3284-97.12351 150.3008-123.60116 30.7216-12.02494 70.5868-23.14241 98.2954 1.38478 22.9075 21.32517 9.8573 56.2678-7.0675 76.93906-18.1931 26.99594-44.6741 46.96256-74.8471 58.94304-34.0583 20.33195-79.3725 18.48794-110.8061-6.03301-1.0838-.69666-2.2533-1.23366-3.4004-1.81269"/><path d="m1145.2696 144.64925c-19.2615 48.72397-39.2763 98.0821-71.8076 139.71403-28.4578 44.00142-46.4445 94.33551-79.72453 135.30113-23.78316 32.93768-48.80204 65.54924-80.01549 91.86673-19.47895 6.1922-20.04137-20.7923-14.66105-32.91267 12.83153-36.25521 37.22095-66.57625 54.90924-100.3885 22.07476-38.69659 54.05253-69.56182 85.74383-100.24739"/><path d="m1067.4918 308.53814c41.6055 37.74324 106.1656 40.87499 155.2476 16.47425 79.7307-33.80513 147.627-88.69981 215.7912-140.91414 38.5692-31.19936 75.8068-66.58379 98.2999-111.442691 5.2858-16.340836 11.2358-38.191353-2.3042-51.988823-24.8579-9.392422-44.7459 19.21292-62.7133 32.466761-42.206 41.159272-75.9104 90.348773-105.7076 140.969903-18.1332 33.9424-36.3441 60.40033-45.1009 105.84746-4.8684 25.26636 17.3519 40.01019 38.489 36.24378 27.2382-1.27906 52.1821-14.06224 77.2642-23.5167 20.2617-9.77194 38.052-23.75443 55.7341-37.47313"/><path d="m1509.1585 216.87147c45.3671 35.48031 84.7434 37.23796 135.7328 25.17331 14.925-4.86754 25.7515-17.97315 30.1445-32.73996 6.2047-12.9545-.2899-27.91555-12.929-33.8982-19.5006-12.36806-44.6888-10.55607-64.9092-.92535-33.4028 14.45512-59.4353 40.93033-84.563 66.45243-13.9248 16.55902-22.671 38.06079-22.9956 59.74639.7543 12.73146 10.7427 22.65661 22.5942 25.94215 28.6381 11.95988 61.6748 18.05546 91.8527 8.36881 20.1474-7.27059 39.868-15.91987 58.8894-25.73255 22.7573-13.36221 41.3454-32.41648 60.072-50.72036"/><path d="m1779.9918 343.26036c28.6993 3.03127 63.3496 2.62457 82.7159-22.45172 21.6447-19.99229 43.1941-48.10952 35.6329-79.45221-4.1368-22.17497-33.5802-38.22486-52.1616-22.03003-31.7488 22.47063-31.372 70.25063-12.8813 101.12391 23.6727 38.55114 74.0602 50.51158 116.164 41.35476 54.0203-10.31179 104.4208-53.87389 110.9357-110.27278.7888-32.83995.7757-65.72269 4.9445-98.36663 3.9298-42.7466 9.9471-89.084405 39.2166-122.675002 17.104-18.491716 51.2258-26.9233518 69.4545-5.555968 14.6931 19.194858 3.0296 45.294939-10.7419 61.486039-16.3416 25.138501-48.7197 29.136431-75.3811 36.237431-26.4792 5.77658-58.6276 2.75073-76.1034-20.51069-9.6512-10.713121-20.4603-22.768271-20.6837-38.053993"/><path d="m2245.2696 122.42703c-3.9166.81691-6.5582 5.39919-5.219 9.18763 1.2777 3.63173 4.3682 6.64885 8.1357 7.58096 2.108.12035 4.1149-1.67454 4.2375-3.78089.7885-3.73488.2701-7.91813-2.1144-10.99661-1.2461-1.37634-3.1464-2.37225-5.0398-1.99109"/><path d="m2219.5751 170.3437c-29.9457 39.95653-58.8628 80.7409-86.118 122.56461-5.4378 11.43956-6.9218 27.24913 2.6137 36.94004 11.5344 8.50012 26.6093 3.95387 39.1614.62975 31.967-8.46295 63.2786-21.86206 88.264-43.97857 15.2095-12.48824 29.1196-26.55137 41.4956-41.85028"/><path d="m2487.38 203.45563c-3.3292-19.2489-24.4513-30.55681-42.8081-28.63327-39.0192-1.47124-74.6768 18.22839-106.1126 39.27122-27.4601 19.28281-52.9628 45.12902-62.0025 78.30592-2.9108 24.00347 18.676 49.02117 43.417 46.57579 41.4005-.49369 78.4941-23.55071 108.3115-50.5202 26.5153-22.3804 52.8121-49.50782 59.1947-84.99946"/><path d="m2515.4085 226.5937c-48.3542 24.84206-95.4271 57.89871-121.9801 106.67545-38.548 57.86235-85.0736 109.83278-130.7587 162.02483-14.3416 13.79585-31.8449 28.78802-52.8206 28.38924-22.4201-5.81296-20.145-35.44311-3.7589-46.92382 18.3472-20.65863 39.7594-38.46949 61.3752-55.55681 37.3089-27.01631 74.2659-55.34905 116.5753-74.2272 45.8819-21.27356 92.5741-41.44894 133.4511-71.77058"/><path d="m2561.9362 176.5937c-11.728 39.55572-31.7885 76.05727-54.1537 110.51619-11.367 17.27415-23.5479 34.0347-36.8185 49.90047"/><path d="m2471.6585 334.92703c39.4203-54.93792 84.2673-108.82208 144.2119-142.13528 20.4555-10.53089 43.6781-13.18946 66.1233-16.24748 15.4075-2.13385 35.1588 8.90133 33.4692 26.24623-2.9508 16.37726-14.16 29.73489-22.9962 43.3486-13.3021 19.00229-30.5436 36.66009-36.611 59.58253-4.3581 18.38699 14.1449 34.91044 31.9547 29.10574 16.8023-4.83584 31.073-15.60156 46.3125-23.86514 23.356-14.17855 45.5509-30.69352 63.9244-51.0352"/><path d="m2945.2696 276.5937c22.3825-18.04222 43.6601-40.96167 49.1836-70.14766 1.6596-16.7076-14.1662-31.70685-30.5059-31.31677-38.4972-6.9588-76.9683 9.1156-108.0208 30.84253-27.6063 19.08076-55.1974 41.48489-69.2262 72.82154-7.1903 18.94072-2.0574 44.40278 17.325 53.92146 22.3966 12.66022 50.5757 7.55107 71.8376-5.02642 25.3952-13.7463 46.7256-33.50699 69.4067-51.09468"/><path d="m3032.0751 221.03814c-34.9663 24.39777-159.9904 94.46573-91.1404 111.19476 49.5078 12.02932 120.689-54.55505 178.2367-101.75128s164.1423-136.348841 176.2724-205.706175c12.1301-69.357335-35.8274 25.038279-57.6617 62.402284-21.8343 37.364011-53.1817 114.582201-93.4244 175.681151-55.9422 84.93494 14.2268 97.70016 78.695 54.07139 43.4593-29.41104 56.0463-39.23804 79.8558-64.64213"/><path d="m3119.5751 163.39925c51.3284 2.8018 102.806 4.27265 154.1667 1.38889"/><path d="m3359.1585 166.17703c-26.0554 38.94967-53.443 76.90675-75.3826 118.80876-8.2374 15.73252-12.8945 40.55439 6.2938 47.64921 25.3545 6.43589 34.5616-2.95338 49.294-7.34667 48.0292-19.31164 87.8533-54.50776 122.854-93.37814 15.42-20.923 30.5124-42.09003 46.9408-62.26134"/><path d="m3511.2418 168.95481c-31.3786 34.96488-59.3857 72.92099-84.9995 112.24284-6.288 13.61689-16.1644 29.28735-9.8599 44.58789 7.0942 13.41865 25.2642 10.69636 37.6171 7.93765 31.8778-9.70921 58.1068-31.49347 83.8755-51.77583 20.5616-16.72078 38.3203-36.60992 53.5974-58.18739 14.5478-17.73424 29.2159-35.93086 39.6787-56.3568 4.934-18.95097-28.1547-19.20088-17.7187-.12487 9.5405 17.82935 32.3392 18.53167 50.1021 19.48194 16.3122-3.37266 23.3898 15.5346 12.9603 26.5127-6.8718 8.02389-13.7478 15.769-19.1588 24.9829-16.8576 24.69747-36.847 48.68268-44.6449 78.10881-3.0723 19.33042 19.5849 33.62972 36.7818 27.38476 35.6706-8.34057 67.9833-26.49985 99.2689-44.93349"/><path d="m3763.3251 216.87147c33.1817 22.33062 74.828 35.62344 114.8149 27.5851 15.6821-3.20582 30.2525-10.71137 43.1524-19.942 17.3248-14.2012 16.9209-44.79145-2.1675-57.28603-13.4925-8.89012-30.6833-5.87659-45.6599-3.46265-33.5763 7.00049-61.9142 28.29846-85.8989 51.8761-25.4017 22.73023-42.112 57.70516-36.9155 92.17467 6.3894 18.1743 25.3211 28.36102 43.6991 29.78005 26.397 2.30348 52.8197-3.96515 77.6246-12.547 39.816-14.49663 75.2011-38.73414 108.0175-65.12268"/><path d="m127.96633 989.9893q-30.652774.0-60.833949-8.48849-29.709599-8.96003-49.515998-23.57904l12.732685-75.45295h2.829486q20.749561 15.09059 44.800188 23.57904 24.050628 8.48846 46.686518 8.48846 44.32861.0 44.32861-32.0675.0-12.26111-6.60214-20.27798-6.13055-8.48846-22.1643-15.56217L91.183006 824.46436q-33.482244-15.09059-51.8739-41.02754Q21.38903 757.49987 21.38903 723.07446q0-31.59592 14.619009-54.70339 15.09059-23.57904 41.970703-36.31173 27.351698-12.73268 63.663428-12.73268 26.88012.0 53.28865 7.07371 26.40853 7.07372 42.91386 18.39166l-12.2611 71.20872h-2.82949Q208.13508 705.62597 187.8571 699.967q-19.8064-6.13056-39.14121-6.13056-41.49913.0-41.49913 28.29486.0 11.31794 6.60214 19.33482 7.07371 8.01687 22.1643 14.61901l42.44228 19.33482q40.55597 18.39165 58.47604 42.91386 17.92008 24.05063 17.92008 59.89078.0 33.95383-16.03376 59.4192-15.56217 24.99379-43.85702 38.66963-28.29486 13.67588-66.96449 13.67588z"/><path d="m355.73912 985.27346q-33.95383.0-53.76023-18.86324-19.8064-18.86323-19.8064-50.45916.0-66.96449 89.1288-74.98136l58.00446-5.18739v-2.35791q0-16.50533-9.9032-23.57905-9.43162-7.54529-30.18118-7.54529t-43.85703 5.18739q-23.10747 4.71581-36.78331 12.73268h-3.30107l12.2611-66.96449q41.49913-16.97691 87.71406-16.97691 106.10571.0 106.10571 103.27622v73.56663q0 19.8064 2.82948 37.25489 3.30107 17.4485 8.48846 27.3517v3.77264h-76.39611q-7.07371-16.03375-8.48846-35.36857h-3.30106q-8.96004 17.92008-30.18118 28.76644-21.22115 10.37478-48.57284 10.37478zm6.13055-76.86769q0 19.33482 23.10747 19.33482 19.8064.0 32.0675-11.31795 12.26111-11.31794 12.26111-28.76643v-5.65897l-38.19806 3.30106q-29.23802 2.82949-29.23802 23.10747z"/><path d="M565.59215 981.50081V741.9377h76.39611v41.9707h3.30107q8.48845-22.63588 26.88011-34.89699 18.86324-12.73268 43.38544-12.73268 51.40233.0 70.26556 44.32861h1.88633q10.84636-22.16431 30.18118-33.01067 19.33482-11.31794 45.27177-11.31794 41.49912.0 63.19184 27.35169 22.16431 26.88012 22.16431 75.92453V981.50081H863.6313V847.10025q0-39.14122-30.18118-39.14122-15.56217.0-24.99379 11.78952-8.96004 11.31795-8.96004 30.65276v131.0995H714.61172V847.57183q0-39.6128-30.18118-39.6128-15.56217.0-24.99379 11.78952-8.96003 11.78953-8.96003 32.53909v129.21317z"/><path d="M1001.8042 1099.396V741.9377h80.6403v35.36857h3.7726q22.1643-41.02754 70.2656-41.02754 31.1243.0 54.2318 15.56217t35.8402 43.85703q12.7326 27.82327 12.7326 66.02133.0 37.72647-12.7326 66.02133-12.7327 28.29485-35.8402 43.85702-23.1075 15.56219-54.2318 15.56219-42.9139.0-66.0213-33.01068h-3.7727V1099.396zm125.9121-183.91652q21.2211.0 33.4822-14.14742 12.2611-14.61901 12.2611-39.14122.0-25.46537-12.2611-39.6128-11.7895-14.61901-33.4822-14.61901-20.7496.0-33.0107 14.61901-12.2611 14.14743-12.2611 39.14122.0 24.52221 12.2611 39.14121 12.2611 14.61901 33.0107 14.61901z"/><path d="M1302.2008 981.50081V613.66769h84.8846v367.83312z"/><path d="m1557.797 987.1598q-58.9477.0-93.3731-33.48226-33.9538-33.48225-33.9538-91.95828.0-39.6128 16.0338-67.43608 16.5053-28.29485 44.8002-42.91386 28.7664-15.09059 65.0781-15.09059 55.6466.0 84.413 33.01066 29.238 32.53909 29.238 92.90145v12.73268l-153.7354 15.09059q5.659 16.97692 19.8064 24.05063 14.619 7.07371 35.8402 7.07371 24.0506.0 46.2149-5.65897 22.6359-6.13055 33.9539-12.2611h3.301l-12.2611 66.96449q-14.1474 6.13055-37.7265 11.31794-23.579 5.65899-47.6296 5.65899zm-2.8295-188.63239q-15.5622.0-26.8801 9.43162-10.8464 9.43162-14.619 32.0675l79.2256-7.54529q-3.3011-17.92008-13.2043-25.93695-9.9032-8.01688-24.5222-8.01688z"/><path d="m1912.4242 989.9893q-30.6527.0-60.8339-8.48849-29.7096-8.96003-49.516-23.57904l12.7327-75.45295h2.8295q20.7495 15.09059 44.8002 23.57904 24.0506 8.48846 46.6865 8.48846 44.3286.0 44.3286-32.0675.0-12.26111-6.6022-20.27798-6.1305-8.48846-22.1643-15.56217l-49.0444-22.16431q-33.4822-15.09059-51.8739-41.02754-17.9201-25.93695-17.9201-60.36236.0-31.59592 14.6191-54.70339 15.0905-23.57904 41.9707-36.31173 27.3517-12.73268 63.6634-12.73268 26.8801.0 53.2886 7.07371 26.4086 7.07372 42.9139 18.39166l-12.2611 71.20872h-2.8295q-14.619-10.37478-34.897-16.03375-19.8064-6.13056-39.1412-6.13056-41.4991.0-41.4991 28.29486.0 11.31794 6.6021 19.33482 7.0737 8.01687 22.1643 14.61901l42.4423 19.33482q40.556 18.39165 58.476 42.91386 17.9201 24.05063 17.9201 59.89078.0 33.95383-16.0337 59.4192-15.5622 24.99379-43.8571 38.66963-28.2948 13.67588-66.9645 13.67588z"/><path d="m2124.6348 714.11442q-23.1075.0-37.2549-13.67584-14.1474-14.14743-14.1474-35.36857t14.1474-34.89699q14.1474-14.14743 37.2549-14.14743t37.2549 14.14743q14.1474 13.67585 14.1474 34.89699t-14.1474 35.36857q-14.1474 13.67584-37.2549 13.67584zm-42.4423 267.38639V741.9377h84.8846v239.56311z"/><path d="m2329.7719 1105.055q-27.8233.0-53.7602-6.6021-25.937-6.1306-41.9707-16.5053l14.1474-66.493h3.3011q13.2042 8.0169 30.6527 12.7327 17.9201 5.1874 34.897 5.1874 31.5959.0 48.5729-17.4485 16.9769-17.4485 16.9769-49.98756v-17.44849h-3.7727q-23.1074 33.01066-66.0213 33.01066-31.1243.0-54.2318-15.09059-23.1075-15.56217-35.8402-42.91386-12.7326-27.82328-12.7326-64.60659.0-37.25489 12.7326-64.60659 12.7327-27.35169 35.8402-42.44228 23.1075-15.56217 54.2318-15.56217 24.9938.0 44.8002 11.31794t29.238 30.65276h3.3011q.9431-10.37478 3.301-20.27798t5.1874-16.03375h80.1688v3.77265q-6.1306 11.31794-8.9601 29.7096-2.3579 18.39165-2.3579 34.89699v154.67854q0 67.43612-35.8401 103.74782-35.3686 36.3117-101.8615 36.3117zm11.7895-194.29133q20.7496.0 33.0107-14.14742 12.2611-14.14743 12.2611-37.72648t-12.2611-37.72647q-12.2611-14.14743-33.0107-14.14743-21.6927.0-33.9538 14.14743-11.7895 13.67584-11.7895 38.19805.0 23.57905 12.2611 37.72648 12.2611 13.67584 33.4822 13.67584z"/><path d="M2523.1198 981.50081V741.9377h76.3961v41.9707h3.301q8.4885-22.63588 27.8233-34.89699 19.3348-12.73268 46.6865-12.73268 40.556.0 63.6635 27.35169 23.579 27.3517 23.579 75.92453v141.94586h-84.8846V849.45815q0-41.49912-33.9538-41.49912-17.4485.0-27.8233 12.2611-9.9032 12.26111-9.9032 33.95383v127.32685z"/><path d="m2875.8613 985.27346q-33.9538.0-53.7602-18.86324-19.8064-18.86323-19.8064-50.45916.0-66.96449 89.1288-74.98136l58.0044-5.18739v-2.35791q0-16.50533-9.9032-23.57905-9.4316-7.54529-30.1812-7.54529-20.7495.0-43.857 5.18739-23.1075 4.71581-36.7833 12.73268h-3.3011l12.2611-66.96449q41.4991-16.97691 87.7141-16.97691 106.1057.0 106.1057 103.27622v73.56663q0 19.8064 2.8295 37.25489 3.301 17.4485 8.4884 27.3517v3.77264h-76.3961q-7.0737-16.03375-8.4884-35.36857h-3.3011q-8.96 17.92008-30.1812 28.76644-21.2211 10.37478-48.5728 10.37478zm6.1305-76.86769q0 19.33482 23.1075 19.33482 19.8064.0 32.0675-11.31795 12.2611-11.31794 12.2611-28.76643v-5.65897l-38.198 3.30106q-29.2381 2.82949-29.2381 23.10747z"/><path d="M3060.7205 807.95903V741.9377h40.5559v-67.90765h84.8846v67.90765h58.9476l-10.8464 66.02133H3186.161V863.134q0 50.93074 44.8002 50.93074h14.1474l-10.8464 68.85082h-35.3685q-45.7434.0-71.6803-26.88012-25.937-26.88011-25.937-74.98136v-73.09505z"/><path d="m3394.1277 987.1598q-54.7034.0-85.8278-30.65278-31.1243-31.12434-31.1243-86.77089V741.9377h84.8846v129.68476q0 21.22114 8.4884 32.53908 8.4885 11.31794 23.5791 11.31794 15.0905.0 23.579-11.31794 8.4885-11.31794 8.4885-32.53908V741.9377h84.8845v127.79843q0 55.64655-31.1243 86.77089-31.1244 30.65278-85.8277 30.65278z"/><path d="M3562.4816 981.50081V741.9377h76.3961v46.68651h3.3011q16.5053-52.34548 65.0781-52.34548 14.1475.0 23.1075 5.65897v83.94141h-3.3011q-12.7327-5.18739-27.8232-5.18739-24.9938.0-38.6697 16.50533-13.2042 16.50533-13.2042 44.32861v99.97515z"/><path d="m3877.0254 987.1598q-58.9477.0-93.3731-33.48226-33.9538-33.48225-33.9538-91.95828.0-39.6128 16.0338-67.43608 16.5053-28.29485 44.8001-42.91386 28.7665-15.09059 65.0782-15.09059 55.6466.0 84.413 33.01066 29.238 32.53909 29.238 92.90145v12.73268l-153.7354 15.09059q5.659 16.97692 19.8064 24.05063 14.619 7.07371 35.8402 7.07371 24.0506.0 46.2149-5.65897 22.6359-6.13055 33.9538-12.2611h3.3011l-12.2611 66.96449q-14.1474 6.13055-37.7265 11.31794-23.579 5.65899-47.6296 5.65899zm-2.8295-188.63239q-15.5622.0-26.8801 9.43162-10.8464 9.43162-14.6191 32.0675l79.2256-7.54529q-3.301-17.92008-13.2042-25.93695-9.9032-8.01688-24.5222-8.01688z"/></svg></defs></svg>